v -0.21806510477567928 -0.21806510477567928 -0.5264557334297548
v -0.21806510477567928 -0.5264557334297548 -0.21806510477567928
v -0.5264557334297548 -0.21806510477567928 -0.21806510477567928
v 0.21806510477567928 -0.21806510477567928 -0.5264557334297548
v 0.21806510477567928 -0.5264557334297548 -0.21806510477567928
v 0.5264557334297548 -0.21806510477567928 -0.21806510477567928
v -0.21806510477567928 0.21806510477567928 -0.5264557334297548
v -0.21806510477567928 0.5264557334297548 -0.21806510477567928
v -0.5264557334297548 0.21806510477567928 -0.21806510477567928
v 0.21806510477567928 0.21806510477567928 -0.5264557334297548
v 0.21806510477567928 0.5264557334297548 -0.21806510477567928
v 0.5264557334297548 0.21806510477567928 -0.21806510477567928
v -0.21806510477567928 -0.21806510477567928 0.5264557334297548
v -0.21806510477567928 -0.5264557334297548 0.21806510477567928
v -0.5264557334297548 -0.21806510477567928 0.21806510477567928
v 0.21806510477567928 -0.21806510477567928 0.5264557334297548
v 0.21806510477567928 -0.5264557334297548 0.21806510477567928
v 0.5264557334297548 -0.21806510477567928 0.21806510477567928
v -0.21806510477567928 0.21806510477567928 0.5264557334297548
v -0.21806510477567928 0.5264557334297548 0.21806510477567928
v -0.5264557334297548 0.21806510477567928 0.21806510477567928
v 0.21806510477567928 0.21806510477567928 0.5264557334297548
v 0.21806510477567928 0.5264557334297548 0.21806510477567928
v 0.5264557334297548 0.21806510477567928 0.21806510477567928
l 1 2
l 1 4
l 2 5
l 4 5
l 1 3
l 1 7
l 3 9
l 7 9
l 2 3
l 2 14
l 3 15
l 14 15
l 4 6
l 4 10
l 6 12
l 10 12
l 5 6
l 5 17
l 6 18
l 17 18
l 7 8
l 7 10
l 8 11
l 10 11
l 8 9
l 8 20
l 9 21
l 20 21
l 11 12
l 11 23
l 12 24
l 23 24
l 13 14
l 13 16
l 14 17
l 16 17
l 13 15
l 13 19
l 15 21
l 19 21
l 16 18
l 16 22
l 18 24
l 22 24
l 19 20
l 19 22
l 20 23
l 22 23
